#!OML:ASF Y:\EmotionMaleHayes\Project 1\Capture day 1\Session 1\Male1.ASF
:FULLY-SPECIFIED
:DEGREES
158
root 6.40585 15.8213 -1.06043 -11.8521 81.7302 -12.9346
lowerback 18.159 1.54437 -0.18284
upperback 2.31369 2.37036 2.71592
thorax -7.80734 1.25126 2.43951
lowerneck -29.6163 4.79804 4.70973
upperneck 16.4072 5.75914 -4.8312
head 10.3236 2.33754 -1.5183
rclavicle 2.98177e-015 1.98785e-014
rhumerus -47.2388 21.6433 -90.9571
rradius 99.5899
rwrist -19.2652
rhand -25.5485 -19.6302
rfingers 7.12502
rthumb 0.981783 -49.6077
lclavicle 2.98177e-015 1.98785e-014
lhumerus -55.0869 -18.7204 103.666
lradius 88.0175
lwrist 13.9914
lhand -34.0423 -25.9789
lfingers 7.12502
lthumb -7.22038 3.87796
rfemur -21.9967 4.57719 30.6354
rtibia 47.3012
rfoot -185.725 -179.555
rtoes 6.19884
lfemur 24.4202 2.26122 -33.7246
ltibia 57.859
lfoot 2.61342 3.35266
ltoes -4.89676
159
root 6.7808 15.7982 -1.05372 -18.1674 81.5313 -19.8418
lowerback 18.2619 1.64959 0.670534
upperback 2.21201 2.72384 3.11354
thorax -7.97345 1.40518 2.29224
lowerneck -29.3207 4.63603 4.63811
upperneck 15.9523 5.61575 -5.05082
head 10.1084 2.25018 -1.61412
rclavicle -8.34896e-015 -1.19271e-014
rhumerus -43.4405 22.1786 -90.3353
rradius 98.9962
rwrist -19.6106
rhand -25.6842 -19.7786
rfingers 7.12502
rthumb 0.850758 -49.7566
lclavicle -8.34896e-015 -1.19271e-014
lhumerus -56.7799 -17.3589 103.269
lradius 86.6848
lwrist 15.8451
lhand -34.2802 -26.5171
lfingers 7.12502
lthumb -7.45004 3.33172
rfemur -20.8324 4.91634 31.8703
rtibia 47.181
rfoot -185.725 -179.555
rtoes 6.19884
lfemur 24.4202 2.26122 -33.7246
ltibia 57.859
lfoot 2.61342 3.35266
ltoes -4.89676
160
root 7.26335 15.8021 -1.09866 -21.2003 79.3621 -22.4653
lowerback 18.1369 2.255 2.20336
upperback 2.71499 3.83424 3.29387
thorax -7.3166 1.91195 1.35373
lowerneck -29.0383 4.57659 4.86054
upperneck 15.4274 5.56557 -5.59839
head 9.89696 2.18512 -1.85657
rclavicle 2.78299e-014 4.45278e-014
rhumerus -39.7493 22.5426 -89.7895
rradius 98.9804
rwrist -19.6963
rhand -26.2786 -19.1143
rfingers 7.12502
rthumb 0.27668 -49.0939
lclavicle 2.78299e-014 4.45278e-014
lhumerus -58.7176 -16.3859 102.763
lradius 85.8193
lwrist 18.0421
lhand -34.8895 -25.9581
lfingers 7.12502
lthumb -8.03815 3.86905
rfemur -17.8505 6.3811 33.1087
rtibia 46.5043
rfoot -185.725 -179.555
rtoes 6.19884
lfemur 24.4202 2.26122 -33.7246
ltibia 57.859
lfoot 2.61342 3.35266
ltoes -4.89676
161
root 7.6713 15.8101 -1.1324 -25.1829 78.9251 -26.4999
lowerback 18.5754 2.32929 3.56145
upperback 2.77148 4.2406 3.4145
thorax -7.41209 2.07665 0.603014
lowerneck -28.9121 4.45798 5.24624
upperneck 15.0819 5.388 -6.22904
head 9.77634 2.05701 -2.17396
rclavicle 1.05356e-014 2.38542e-014
rhumerus -36.229 22.6558 -89.3918
rradius 98.9962
rwrist -19.3084
rhand -26.935 -17.8761
rfingers 7.12502
rthumb -0.357282 -47.8556
lclavicle 1.05356e-014 2.38542e-014
lhumerus -61.1526 -15.8428 102.492
lradius 85.8974
lwrist 20.6759
lhand -35.1222 -25.8057
lfingers 7.12502
lthumb -8.26271 4.01272
rfemur -15.7534 6.05407 33.821
rtibia 46.4558
rfoot -185.725 -179.555
rtoes 6.19884
lfemur 24.4202 2.26122 -33.7246
ltibia 57.859
lfoot 2.61342 3.35266
ltoes -4.89676
162
root 8.07957 15.8382 -1.16564 -27.0335 78.7459 -28.62
lowerback 18.8983 2.45218 4.40551
upperback 2.77292 4.59944 3.43851
thorax -7.51942 2.22632 0.0530667
lowerneck -29.5304 4.30385 5.53964
upperneck 15.2357 5.1502 -6.70069
head 9.94204 1.8949 -2.42895
rclavicle 2.36554e-014 3.57812e-014
rhumerus -32.6107 22.5285 -88.9053
rradius 99.2265
rwrist -17.828
rhand -26.9447 -18.1615
rfingers 7.12502
rthumb -0.366702 -48.1409
lclavicle 2.36554e-014 3.57812e-014
lhumerus -63.6815 -15.5839 102.404
lradius 86.5289
lwrist 23.1544
lhand -35.0511 -27.5982
lfingers 7.12502
lthumb -8.19412 2.2229
rfemur -13.6685 5.56038 33.8458
rtibia 45.4679
rfoot -185.725 -179.555
rtoes 6.19884
lfemur 24.4202 2.26122 -33.7246
ltibia 57.859
lfoot 2.61342 3.35266
ltoes -4.89676
163
root 8.49916 15.8806 -1.19876 -27.3129 78.5634 -29.3432
lowerback 18.9503 2.68376 4.83577
upperback 2.7658 4.99916 3.47324
thorax -7.51297 2.40805 -0.250128
lowerneck -30.3124 4.15481 5.54834
upperneck 15.4157 4.98483 -6.98044
head 10.1332 1.76875 -2.55954
rclavicle 7.09661e-014 7.31528e-014
rhumerus -29.1987 22.2814 -88.3194
rradius 99.5594
rwrist -15.7764
rhand -26.8665 -17.1259
rfingers 7.12502
rthumb -0.291132 -47.1055
lclavicle 7.09661e-014 7.31528e-014
lhumerus -66.1113 -15.4052 102.449
lradius 87.3932
lwrist 24.3826
lhand -35.1464 -27.4628
lfingers 7.12502
lthumb -8.28604 2.35468
rfemur -11.6011 5.27489 33.5806
rtibia 43.9795
rfoot -185.725 -179.555
rtoes 6.19884
lfemur -17.8531 18.2962 -9.00647
ltibia 61.946
lfoot -8.77394 170.726
ltoes -12.6907
